<?xml version="1.0" encoding="UTF-8"?>
<svg id="Layer_2" data-name="Layer 2" xmlns="http://www.w3.org/2000/svg" viewBox="0 0 547.28 130.71">
  <defs>
    <style>
      .cls-1 {
        fill: #fff;
      }
    </style>
  </defs>
  <g id="Layer_1-2" data-name="Layer 1">
    <g>
      <path class="cls-1" d="m260.01,103.78h-53.5l-14.54,24.42h-37.52L235.05,2.51h35.01l30.34,125.68h-35.37l-5.03-24.42Zm-5.39-26.21l-8.44-40.76-24.06,40.76h32.5Z"/>
      <path class="cls-1" d="m335.24,123.8c-9.58-4.61-16.94-11.1-22.08-19.48-5.15-8.38-7.72-18.01-7.72-28.91,0-14.36,3.32-27.29,9.97-38.78,6.64-11.49,15.95-20.47,27.92-26.93,11.97-6.46,25.61-9.7,40.94-9.7,11.61,0,21.9,2.06,30.88,6.19,8.98,4.13,15.68,9.96,20.11,17.51l-25.68,20.47c-6.1-9.81-15.32-14.72-27.65-14.72-8.02,0-15.08,1.89-21.19,5.66-6.1,3.77-10.86,8.98-14.27,15.62-3.41,6.64-5.12,14.09-5.12,22.35s2.75,15.32,8.26,20.47c5.5,5.15,12.99,7.72,22.44,7.72,11.97,0,22.2-4.85,30.7-14.54l21.01,20.65c-6.82,8.26-14.78,14.21-23.88,17.86-9.1,3.65-19.51,5.48-31.24,5.48-12.69,0-23.82-2.31-33.4-6.91Z"/>
      <path class="cls-1" d="m478.33,29.98l-4.13,21.19h55.84l-5.21,26.57h-56.02l-4.49,22.98h65.89l-5.75,27.47h-100.73L448.89,2.51h98.39l-5.57,27.47h-63.38Z"/>
      <g>
        <path class="cls-1" d="m170.05,13.11c-8.86-7.06-21.43-10.59-37.7-10.59h-53.15l-1.43,7.15h17.22c.72,0,1.3.58,1.3,1.3,0,.36-.15.69-.38.92-.23.23-.56.38-.92.38h-17.75l-2.66,13.3h22.84c.72,0,1.3.59,1.3,1.3,0,.36-.14.69-.38.92-.23.23-.56.38-.92.38h-23.37l-1.39,6.97h8.95c.72,0,1.3.59,1.3,1.3,0,.36-.14.68-.38.92-.24.24-.56.38-.92.38h-9.47l-1.48,7.4h35.41l2.93-14.63h18.67c6.34,0,11.22,1.29,14.63,3.86,3.41,2.57,5.12,6.43,5.12,11.57,0,6.83-2.13,12.1-6.38,15.81-4.25,3.71-10.32,5.57-18.22,5.57h-21.19l3.91-19.56h-35.41l-2.57,12.87h15.73c.72,0,1.3.59,1.3,1.3,0,.36-.14.69-.38.92-.24.23-.56.38-.92.38h-16.25l-1.89,9.45h10.44c.62,0,1.12.5,1.12,1.12v.37c0,.62-.5,1.12-1.12,1.12h-10.96l-1.22,6.08h18.19c.72,0,1.3.59,1.3,1.3,0,.36-.14.69-.38.92-.24.23-.56.38-.92.38h-18.71l-1.21,6.08h10.55c.66,0,1.21.54,1.21,1.21v.19c0,.67-.54,1.21-1.21,1.21h-11.07l-1.12,5.6h26.3c.72,0,1.3.58,1.3,1.3,0,.36-.14.69-.38.92-.24.23-.56.38-.92.38h-26.82l-1.6,7.99h2.58c.65,0,1.18.53,1.18,1.18v.25c0,.65-.53,1.18-1.18,1.18h-3.1l-3.35,16.72h35.55l6.46-32.86h25.14c12.44,0,23.36-2.15,32.77-6.46,9.39-4.32,16.63-10.41,21.73-18.31,5.08-7.9,7.63-17.12,7.63-27.65,0-12.81-4.43-22.74-13.29-29.8Z"/>
        <path class="cls-1" d="m57.93,108.87l-.52,2.6h-22.34c-.65,0-1.18-.53-1.18-1.18v-.25c0-.65.53-1.18,1.18-1.18h22.86Z"/>
        <path class="cls-1" d="m63.43,81.38l-.52,2.61h-23.46c-.72,0-1.3-.59-1.3-1.3,0-.36.14-.69.38-.92.23-.23.56-.38.92-.38h23.98Z"/>
        <path class="cls-1" d="m77.77,9.67l-.52,2.6h-32.6c-.72,0-1.3-.59-1.3-1.3,0-.36.15-.68.38-.92.23-.24.56-.38.92-.38h33.12Z"/>
        <rect class="cls-1" x="19.52" y="28.18" width="28.76" height="2.61" rx="1.2" ry="1.2"/>
        <path class="cls-1" d="m44.65,45.16h26.02l-.52,2.61h-25.5c-.72,0-1.3-.59-1.3-1.3,0-.36.15-.68.38-.92.23-.24.56-.38.92-.38Z"/>
        <path class="cls-1" d="m108.88,46.46c0,.36-.14.68-.38.92-.23.24-.56.38-.92.38h-2.02l.52-2.61h1.5c.72,0,1.3.59,1.3,1.3Z"/>
        <path class="cls-1" d="m65.17,72.7l-.52,2.6h-11.83c-.62,0-1.12-.5-1.12-1.12v-.37c0-.62.5-1.12,1.12-1.12h12.35Z"/>
        <path class="cls-1" d="m61.69,90.07l-.52,2.6h-15.76c-.67,0-1.21-.54-1.21-1.21v-.19c0-.66.54-1.21,1.21-1.21h16.28Z"/>
        <path class="cls-1" d="m60.05,98.28l-.52,2.6h-26.18c-.72,0-1.3-.59-1.3-1.3,0-.36.15-.68.38-.92.23-.24.56-.38.92-.38h26.7Z"/>
        <path class="cls-1" d="m74.59,25.57l-.53,2.61h-18.54c-.72,0-1.3-.59-1.3-1.3,0-.36.15-.69.38-.92.23-.23.56-.38.92-.38h19.06Z"/>
        <rect class="cls-1" x="24.59" y="55.16" width="28.69" height="2.61" rx="1.2" ry="1.2"/>
        <path class="cls-1" d="m72.67,35.15l-.52,2.61h-21.8c-.72,0-1.3-.59-1.3-1.3,0-.36.14-.68.38-.92.24-.24.56-.38.92-.38h22.32Z"/>
        <path class="cls-1" d="m67.58,60.64l-.53,2.61h-24.23c-.72,0-1.3-.59-1.3-1.3,0-.36.14-.69.38-.92.23-.23.56-.38.92-.38h24.76Z"/>
        <rect class="cls-1" x="4.27" y="66.72" width="33.87" height="2.61" rx="1.3" ry="1.3"/>
        <rect class="cls-1" x="2.58" y="43.6" width="33.87" height="2.61" rx="1.3" ry="1.3"/>
        <rect class="cls-1" x="7.65" y="18.57" width="23.69" height="2.61" rx="1.09" ry="1.09"/>
        <rect class="cls-1" x="24.59" y="98.27" width="5.17" height="2.61" rx="1.3" ry="1.3"/>
        <rect class="cls-1" x="45.21" y="72.7" width="5.17" height="2.61" rx="1.3" ry="1.3"/>
        <rect class="cls-1" x="42.63" y="35.15" width="5.17" height="2.61" rx="1.3" ry="1.3"/>
        <rect class="cls-1" x="0" y="18.57" width="5.17" height="2.61" rx="1.3" ry="1.3"/>
      </g>
    </g>
  </g>
</svg>