<?xml version="1.0" encoding="UTF-8"?>
<svg id="Layer_2" data-name="Layer 2" xmlns="http://www.w3.org/2000/svg" viewBox="0 0 306.34 210">
  <defs>
    <style>
      .cls-1 {
        fill: #231f20;
      }
    </style>
  </defs>
  <g id="Layer_1-2" data-name="Layer 1">
    <g>
      <path class="cls-1" d="m284.14,17.7C269.33,5.9,248.33,0,221.14,0h-88.8l-2.39,11.95h28.78c1.2,0,2.18.97,2.18,2.17,0,.6-.25,1.15-.64,1.54-.39.39-.94.64-1.54.64h-29.65l-4.44,22.22h38.17c1.2,0,2.17.98,2.17,2.18,0,.6-.24,1.15-.64,1.54-.39.39-.93.64-1.53.64h-39.05l-2.33,11.65h14.95c1.2,0,2.17.98,2.17,2.18,0,.6-.24,1.14-.63,1.54-.4.4-.94.64-1.54.64h-15.82l-2.47,12.36h59.16l4.89-24.45h31.2c10.59,0,18.75,2.15,24.45,6.45,5.7,4.3,8.55,10.75,8.55,19.34,0,11.41-3.56,20.21-10.66,26.41-7.1,6.2-17.25,9.3-30.44,9.3h-35.4l6.54-32.69h-59.16l-4.3,21.51h26.28c1.2,0,2.18.98,2.18,2.18,0,.6-.24,1.15-.64,1.54-.4.39-.94.64-1.54.64h-27.16l-3.15,15.79h17.44c1.03,0,1.87.84,1.87,1.87v.61c0,1.04-.84,1.87-1.87,1.87h-18.31l-2.04,10.16h30.4c1.2,0,2.17.98,2.17,2.18,0,.6-.24,1.15-.63,1.54-.4.39-.94.64-1.54.64h-31.27l-2.03,10.16h17.63c1.11,0,2.02.91,2.02,2.02v.31c0,1.12-.91,2.02-2.02,2.02h-18.5l-1.87,9.36h43.94c1.2,0,2.17.97,2.17,2.17,0,.6-.24,1.15-.63,1.54-.4.39-.94.64-1.54.64h-44.81l-2.67,13.35h4.31c1.09,0,1.97.88,1.97,1.97v.41c0,1.09-.88,1.97-1.97,1.97h-5.18l-5.59,27.94h59.4l10.8-54.91h42c20.79,0,39.04-3.59,54.75-10.79,15.69-7.21,27.79-17.4,36.3-30.6,8.49-13.2,12.75-28.6,12.75-46.2,0-21.4-7.41-38-22.2-49.8Z"/>
      <path class="cls-1" d="m96.8,177.71l-.87,4.35h-37.32c-1.09,0-1.97-.88-1.97-1.97v-.41c0-1.09.88-1.97,1.97-1.97h38.19Z"/>
      <path class="cls-1" d="m105.98,131.78l-.87,4.36h-39.2c-1.21,0-2.18-.98-2.18-2.18,0-.6.24-1.15.64-1.54.39-.39.93-.64,1.54-.64h40.07Z"/>
      <path class="cls-1" d="m129.95,11.95l-.87,4.35h-54.47c-1.2,0-2.18-.98-2.18-2.18,0-.6.25-1.14.64-1.53.39-.4.94-.64,1.54-.64h55.34Z"/>
      <rect class="cls-1" x="32.61" y="42.88" width="48.06" height="4.35" rx="2.01" ry="2.01"/>
      <path class="cls-1" d="m74.61,71.25h43.48l-.87,4.36h-42.61c-1.2,0-2.18-.98-2.18-2.18,0-.6.25-1.14.64-1.54.39-.4.94-.64,1.54-.64Z"/>
      <path class="cls-1" d="m181.92,73.43c0,.6-.24,1.14-.64,1.54-.39.4-.93.64-1.53.64h-3.37l.87-4.36h2.5c1.2,0,2.17.98,2.17,2.18Z"/>
      <path class="cls-1" d="m108.89,117.27l-.87,4.35h-19.77c-1.04,0-1.87-.83-1.87-1.87v-.61c0-1.03.83-1.87,1.87-1.87h20.64Z"/>
      <path class="cls-1" d="m103.08,146.3l-.87,4.35h-26.34c-1.12,0-2.02-.9-2.02-2.02v-.31c0-1.11.9-2.02,2.02-2.02h27.21Z"/>
      <path class="cls-1" d="m100.34,160.01l-.87,4.35h-43.74c-1.2,0-2.18-.98-2.18-2.18,0-.6.25-1.14.64-1.53.39-.4.94-.64,1.54-.64h44.61Z"/>
      <path class="cls-1" d="m124.64,38.52l-.88,4.36h-30.97c-1.2,0-2.18-.98-2.18-2.18,0-.6.25-1.15.64-1.54.39-.39.94-.64,1.54-.64h31.85Z"/>
      <rect class="cls-1" x="41.08" y="87.97" width="47.94" height="4.35" rx="2" ry="2"/>
      <path class="cls-1" d="m121.43,54.53l-.87,4.36h-36.42c-1.2,0-2.18-.98-2.18-2.18,0-.6.24-1.14.64-1.54.4-.4.94-.64,1.54-.64h37.29Z"/>
      <path class="cls-1" d="m112.92,97.12l-.88,4.36h-40.49c-1.2,0-2.17-.98-2.17-2.18,0-.6.24-1.15.64-1.54.39-.39.93-.64,1.53-.64h41.37Z"/>
      <rect class="cls-1" x="7.14" y="107.29" width="56.59" height="4.35" rx="2.18" ry="2.18"/>
      <rect class="cls-1" x="4.32" y="68.65" width="56.59" height="4.35" rx="2.18" ry="2.18"/>
      <rect class="cls-1" x="12.79" y="26.83" width="39.59" height="4.35" rx="1.82" ry="1.82"/>
      <rect class="cls-1" x="41.08" y="160.01" width="8.63" height="4.35" rx="2.18" ry="2.18"/>
      <rect class="cls-1" x="75.54" y="117.27" width="8.63" height="4.35" rx="2.18" ry="2.18"/>
      <rect class="cls-1" x="71.23" y="54.53" width="8.63" height="4.35" rx="2.18" ry="2.18"/>
      <rect class="cls-1" x="0" y="26.83" width="8.63" height="4.35" rx="2.18" ry="2.18"/>
    </g>
  </g>
</svg>